<?xml version="1.0" encoding="UTF-8"?>
<svg xmlns="http://www.w3.org/2000/svg" viewBox="0 0 197.81 73.54">
  <g>
    <path fill="none" stroke="#fff" stroke-miterlimit="10" stroke-width=".5" d="M.25,58.52V15.01c8.15,0,14.76-6.61,14.76-14.76h167.78c0,8.15,6.61,14.76,14.76,14.76v43.51c-8.15,0-14.76,6.61-14.76,14.76H15.01c0-8.15-6.61-14.76-14.76-14.76Z"/>
    <path fill="none" stroke="#fff" stroke-miterlimit="10" stroke-width=".5" d="M17.62,70.45c-1.21-7.44-7.1-13.33-14.54-14.54V17.62c7.44-1.21,13.33-7.1,14.54-14.54h162.57c1.21,7.44,7.1,13.33,14.54,14.54v38.3c-7.44,1.21-13.33,7.1-14.54,14.54H17.62Z"/>
  </g>
</svg>
